<?xml version="1.0" encoding="UTF-8"?>
<svg xmlns="http://www.w3.org/2000/svg" xmlns:xlink="http://www.w3.org/1999/xlink" width="200pt" height="200pt" viewBox="0 0 200 200" version="1.1">
<g id="surface1">
<path style=" stroke:none;fill-rule:nonzero;fill:rgb(14.509804%,82.745098%,40%);fill-opacity:1;" d="M 196.898438 200 L 3.101562 200 C 1.390625 200 0 198.332031 0 196.277344 L 0 3.722656 C 0 1.667969 1.390625 0 3.101562 0 L 196.898438 0 C 198.609375 0 200 1.667969 200 3.722656 L 200 196.277344 C 200 198.332031 198.609375 200 196.898438 200 Z M 196.898438 200 "/>
<path style=" stroke:none;fill-rule:evenodd;fill:rgb(100%,100%,100%);fill-opacity:1;" d="M 127.140625 112.605469 C 125.667969 111.871094 118.429688 108.308594 117.082031 107.816406 C 115.730469 107.328125 114.75 107.082031 113.769531 108.554688 C 112.789062 110.027344 109.96875 113.34375 109.109375 114.328125 C 108.25 115.308594 107.390625 115.433594 105.917969 114.695312 C 104.449219 113.957031 99.703125 112.402344 94.082031 107.390625 C 89.707031 103.484375 86.753906 98.664062 85.894531 97.191406 C 85.035156 95.71875 85.800781 94.921875 86.539062 94.1875 C 87.199219 93.527344 88.011719 92.46875 88.746094 91.609375 C 89.484375 90.75 89.726562 90.136719 90.21875 89.152344 C 90.710938 88.171875 90.464844 87.3125 90.097656 86.574219 C 89.726562 85.839844 86.785156 78.59375 85.558594 75.644531 C 84.363281 72.773438 83.148438 73.164062 82.246094 73.117188 C 81.386719 73.074219 80.40625 73.066406 79.425781 73.066406 C 78.441406 73.066406 76.847656 73.433594 75.5 74.90625 C 74.148438 76.382812 70.347656 79.941406 70.347656 87.1875 C 70.347656 94.433594 75.621094 101.433594 76.359375 102.414062 C 77.09375 103.398438 86.738281 118.265625 101.503906 124.640625 C 105.015625 126.160156 107.757812 127.0625 109.894531 127.742188 C 113.421875 128.863281 116.628906 128.703125 119.167969 128.324219 C 121.996094 127.902344 127.875 124.765625 129.101562 121.328125 C 130.328125 117.886719 130.328125 114.941406 129.960938 114.328125 C 129.59375 113.710938 128.613281 113.34375 127.140625 112.605469 Z M 100.28125 149.277344 L 100.261719 149.277344 C 91.476562 149.277344 82.859375 146.914062 75.339844 142.453125 L 73.550781 141.394531 L 55.019531 146.253906 L 59.964844 128.1875 L 58.800781 126.332031 C 53.902344 118.539062 51.3125 109.527344 51.316406 100.273438 C 51.328125 73.277344 73.292969 51.3125 100.300781 51.3125 C 113.378906 51.320312 125.671875 56.417969 134.917969 65.675781 C 144.164062 74.929688 149.25 87.230469 149.246094 100.316406 C 149.234375 127.3125 127.269531 149.277344 100.28125 149.277344 Z M 141.953125 58.640625 C 130.832031 47.507812 116.039062 41.371094 100.28125 41.363281 C 67.808594 41.363281 41.382812 67.789062 41.371094 100.269531 C 41.363281 110.652344 44.078125 120.789062 49.234375 129.722656 L 40.875 160.25 L 72.105469 152.058594 C 80.710938 156.75 90.398438 159.226562 100.257812 159.226562 L 100.28125 159.226562 C 132.75 159.226562 159.179688 132.800781 159.191406 100.320312 C 159.199219 84.578125 153.078125 69.777344 141.953125 58.640625 "/>
</g>
</svg>
